<svg width="225" height="32" viewBox="0 0 225 32" fill="none" xmlns="http://www.w3.org/2000/svg">
<path fill-rule="evenodd" clip-rule="evenodd" d="M12 12C12 9.79086 13.7909 8 16 8C18.2091 8 20 9.79086 20 12C20 14.2091 18.2091 16 16 16C13.7909 16 12 14.2091 12 12ZM16 10C14.8954 10 14 10.8954 14 12C14 13.1046 14.8954 14 16 14C17.1046 14 18 13.1046 18 12C18 10.8954 17.1046 10 16 10Z" fill="#F2F3F4"/>
<path fill-rule="evenodd" clip-rule="evenodd" d="M7 12C7 7.02944 11.0294 3 16 3C20.9706 3 25 7.02944 25 12C25 12.9914 24.5333 14.2933 23.9366 15.5653C23.3175 16.8849 22.4787 18.3348 21.5821 19.6797C20.687 21.0223 19.7146 22.2901 18.8197 23.2346C18.3741 23.705 17.9253 24.1192 17.4962 24.4233C17.1045 24.7009 16.5755 25 16 25C15.4245 25 14.8955 24.7009 14.5038 24.4233C14.0747 24.1192 13.6259 23.705 13.1803 23.2346C12.2854 22.2901 11.313 21.0223 10.4179 19.6797C9.52132 18.3348 8.68247 16.8849 8.06343 15.5653C7.46666 14.2933 7 12.9914 7 12ZM16 5C12.134 5 9 8.13401 9 12C9 12.5086 9.28334 13.4567 9.87407 14.7159C10.4425 15.9276 11.2287 17.2902 12.0821 18.5703C12.937 19.8527 13.8396 21.0224 14.6322 21.8591C15.0303 22.2794 15.3784 22.5918 15.6603 22.7916C15.8447 22.9223 15.9546 22.9715 16 22.9898C16.0454 22.9715 16.1553 22.9223 16.3397 22.7916C16.6216 22.5918 16.9697 22.2794 17.3678 21.8591C18.1604 21.0224 19.063 19.8527 19.9179 18.5703C20.7713 17.2902 21.5575 15.9276 22.1259 14.7159C22.7167 13.4567 23 12.5086 23 12C23 8.13401 19.866 5 16 5Z" fill="#F2F3F4"/>
<path d="M8.28589 21.9768C8.81512 21.8189 9.11616 21.2619 8.95826 20.7326C8.80037 20.2034 8.24334 19.9024 7.71411 20.0603C6.42916 20.4436 5.31018 20.9334 4.48995 21.5318C3.68984 22.1156 3 22.9387 3 24C3 24.99 3.60284 25.774 4.32405 26.3424C5.05653 26.9197 6.05447 27.3958 7.19849 27.7771C9.49699 28.5433 12.6087 29 16 29C19.3913 29 22.503 28.5433 24.8015 27.7771C25.9455 27.3958 26.9435 26.9197 27.676 26.3424C28.3972 25.774 29 24.99 29 24C29 22.9387 28.3102 22.1156 27.51 21.5318C26.6898 20.9334 25.5708 20.4436 24.2859 20.0603C23.7567 19.9024 23.1996 20.2034 23.0417 20.7326C22.8838 21.2619 23.1849 21.8189 23.7141 21.9768C24.8842 22.3259 25.7652 22.7345 26.3312 23.1475C26.9173 23.5752 27 23.8766 27 24C27 24.1146 26.9313 24.3828 26.438 24.7716C25.956 25.1514 25.1966 25.5372 24.1691 25.8797C22.1244 26.5613 19.2361 27 16 27C12.7639 27 9.8756 26.5613 7.83095 25.8797C6.80339 25.5372 6.04398 25.1514 5.56199 24.7716C5.06873 24.3828 5 24.1146 5 24C5 23.8766 5.08266 23.5752 5.6688 23.1475C6.23482 22.7345 7.11584 22.3259 8.28589 21.9768Z" fill="#F2F3F4"/>
<path d="M48.1136 26V8.54545H58.6477V10.4205H50.2273V15.875H54.6591C55.9091 15.875 56.9631 16.0795 57.821 16.4886C58.6847 16.8977 59.3381 17.4744 59.7812 18.2188C60.2301 18.9631 60.4545 19.8409 60.4545 20.8523C60.4545 21.8636 60.2301 22.7557 59.7812 23.5284C59.3381 24.3011 58.6847 24.9062 57.821 25.3438C56.9631 25.7812 55.9091 26 54.6591 26H48.1136ZM50.2273 24.1591H54.6591C55.4545 24.1591 56.1278 24 56.679 23.6818C57.2358 23.358 57.6563 22.9432 57.9403 22.4375C58.2301 21.9261 58.375 21.3864 58.375 20.8182C58.375 19.983 58.054 19.2642 57.4119 18.6619C56.7699 18.054 55.8523 17.75 54.6591 17.75H50.2273V24.1591ZM67.5135 26.3068C66.6839 26.3068 65.9311 26.1506 65.255 25.8381C64.5788 25.5199 64.0419 25.0625 63.6442 24.4659C63.2464 23.8636 63.0476 23.1364 63.0476 22.2841C63.0476 21.5341 63.1953 20.9261 63.4908 20.4602C63.7862 19.9886 64.1811 19.6193 64.6754 19.3523C65.1697 19.0852 65.7152 18.8864 66.3118 18.7557C66.9141 18.6193 67.5192 18.5114 68.1271 18.4318C68.9226 18.3295 69.5675 18.2528 70.0618 18.2017C70.5618 18.1449 70.9254 18.0511 71.1527 17.9205C71.3857 17.7898 71.5021 17.5625 71.5021 17.2386V17.1705C71.5021 16.3295 71.272 15.6761 70.8118 15.2102C70.3572 14.7443 69.6669 14.5114 68.7408 14.5114C67.7805 14.5114 67.0277 14.7216 66.4822 15.142C65.9368 15.5625 65.5533 16.0114 65.3317 16.4886L63.4226 15.8068C63.7635 15.0114 64.218 14.392 64.7862 13.9489C65.3601 13.5 65.9851 13.1875 66.6612 13.0114C67.343 12.8295 68.0135 12.7386 68.6726 12.7386C69.093 12.7386 69.576 12.7898 70.1214 12.892C70.6726 12.9886 71.2038 13.1903 71.7152 13.4972C72.2322 13.804 72.6612 14.267 73.0021 14.8864C73.343 15.5057 73.5135 16.3352 73.5135 17.375V26H71.5021V24.2273H71.3999C71.2635 24.5114 71.0362 24.8153 70.718 25.1392C70.3999 25.4631 69.9766 25.7386 69.4482 25.9659C68.9197 26.1932 68.2749 26.3068 67.5135 26.3068ZM67.8203 24.5C68.6158 24.5 69.2862 24.3438 69.8317 24.0312C70.3828 23.7188 70.7976 23.3153 71.076 22.821C71.3601 22.3267 71.5021 21.8068 71.5021 21.2614V19.4205C71.4169 19.5227 71.2294 19.6165 70.9396 19.7017C70.6555 19.7812 70.326 19.8523 69.951 19.9148C69.5817 19.9716 69.2209 20.0227 68.8686 20.0682C68.522 20.108 68.2408 20.142 68.0249 20.1705C67.5021 20.2386 67.0135 20.3494 66.5589 20.5028C66.1101 20.6506 65.7464 20.875 65.468 21.1761C65.1953 21.4716 65.0589 21.875 65.0589 22.3864C65.0589 23.0852 65.3175 23.6136 65.8345 23.9716C66.3572 24.3239 67.0192 24.5 67.8203 24.5ZM82.5028 26.2727C81.2756 26.2727 80.2188 25.983 79.3324 25.4034C78.446 24.8239 77.7642 24.0256 77.2869 23.0085C76.8097 21.9915 76.571 20.8295 76.571 19.5227C76.571 18.1932 76.8153 17.0199 77.304 16.0028C77.7983 14.9801 78.4858 14.1818 79.3665 13.608C80.2528 13.0284 81.2869 12.7386 82.4688 12.7386C83.3892 12.7386 84.2188 12.9091 84.9574 13.25C85.696 13.5909 86.3011 14.0682 86.7727 14.6818C87.2443 15.2955 87.5369 16.0114 87.6506 16.8295H85.6392C85.4858 16.233 85.1449 15.7045 84.6165 15.2443C84.0938 14.7784 83.3892 14.5455 82.5028 14.5455C81.7188 14.5455 81.0313 14.75 80.4403 15.1591C79.8551 15.5625 79.3977 16.1335 79.0682 16.8722C78.7443 17.6051 78.5824 18.4659 78.5824 19.4545C78.5824 20.4659 78.7415 21.3466 79.0597 22.0966C79.3835 22.8466 79.8381 23.429 80.4233 23.8438C81.0142 24.2585 81.7074 24.4659 82.5028 24.4659C83.0256 24.4659 83.5 24.375 83.9261 24.1932C84.3523 24.0114 84.7131 23.75 85.0085 23.4091C85.304 23.0682 85.5142 22.6591 85.6392 22.1818H87.6506C87.5369 22.9545 87.2557 23.6506 86.8068 24.2699C86.3636 24.8835 85.7756 25.3722 85.0426 25.7358C84.3153 26.0938 83.4688 26.2727 82.5028 26.2727ZM95.9091 26.2727C94.6818 26.2727 93.625 25.983 92.7386 25.4034C91.8523 24.8239 91.1705 24.0256 90.6932 23.0085C90.2159 21.9915 89.9773 20.8295 89.9773 19.5227C89.9773 18.1932 90.2216 17.0199 90.7102 16.0028C91.2045 14.9801 91.892 14.1818 92.7727 13.608C93.6591 13.0284 94.6932 12.7386 95.875 12.7386C96.7955 12.7386 97.625 12.9091 98.3636 13.25C99.1023 13.5909 99.7074 14.0682 100.179 14.6818C100.651 15.2955 100.943 16.0114 101.057 16.8295H99.0455C98.892 16.233 98.5511 15.7045 98.0227 15.2443C97.5 14.7784 96.7955 14.5455 95.9091 14.5455C95.125 14.5455 94.4375 14.75 93.8466 15.1591C93.2614 15.5625 92.804 16.1335 92.4744 16.8722C92.1506 17.6051 91.9886 18.4659 91.9886 19.4545C91.9886 20.4659 92.1477 21.3466 92.4659 22.0966C92.7898 22.8466 93.2443 23.429 93.8295 23.8438C94.4205 24.2585 95.1136 24.4659 95.9091 24.4659C96.4318 24.4659 96.9062 24.375 97.3324 24.1932C97.7585 24.0114 98.1193 23.75 98.4148 23.4091C98.7102 23.0682 98.9205 22.6591 99.0455 22.1818H101.057C100.943 22.9545 100.662 23.6506 100.213 24.2699C99.7699 24.8835 99.1818 25.3722 98.4489 25.7358C97.7216 26.0938 96.875 26.2727 95.9091 26.2727ZM109.486 26.2727C108.224 26.2727 107.136 25.9943 106.222 25.4375C105.312 24.875 104.611 24.0909 104.116 23.0852C103.628 22.0739 103.384 20.8977 103.384 19.5568C103.384 18.2159 103.628 17.0341 104.116 16.0114C104.611 14.983 105.298 14.1818 106.179 13.608C107.065 13.0284 108.099 12.7386 109.281 12.7386C109.963 12.7386 110.636 12.8523 111.301 13.0795C111.966 13.3068 112.571 13.6761 113.116 14.1875C113.662 14.6932 114.097 15.3636 114.42 16.1989C114.744 17.0341 114.906 18.0625 114.906 19.2841V20.1364H104.815V18.3977H112.861C112.861 17.6591 112.713 17 112.418 16.4205C112.128 15.8409 111.713 15.3835 111.173 15.0483C110.639 14.7131 110.009 14.5455 109.281 14.5455C108.48 14.5455 107.787 14.7443 107.202 15.142C106.622 15.5341 106.176 16.0455 105.864 16.6761C105.551 17.3068 105.395 17.983 105.395 18.7045V19.8636C105.395 20.8523 105.565 21.6903 105.906 22.3778C106.253 23.0597 106.733 23.5795 107.347 23.9375C107.96 24.2898 108.673 24.4659 109.486 24.4659C110.014 24.4659 110.491 24.392 110.918 24.2443C111.349 24.0909 111.722 23.8636 112.034 23.5625C112.347 23.2557 112.588 22.875 112.759 22.4205L114.702 22.9659C114.497 23.625 114.153 24.2045 113.67 24.7045C113.188 25.1989 112.591 25.5852 111.881 25.8636C111.17 26.1364 110.372 26.2727 109.486 26.2727ZM119.977 23.0341L126.284 12.9091H128.602V26H126.591V15.875L120.318 26H117.966V12.9091H119.977V23.0341ZM124.955 8.54545H126.83C126.83 9.46591 126.511 10.2188 125.875 10.804C125.239 11.3892 124.375 11.6818 123.284 11.6818C122.21 11.6818 121.355 11.3892 120.719 10.804C120.088 10.2188 119.773 9.46591 119.773 8.54545H121.648C121.648 8.98864 121.77 9.37784 122.014 9.71307C122.264 10.0483 122.688 10.2159 123.284 10.2159C123.881 10.2159 124.307 10.0483 124.562 9.71307C124.824 9.37784 124.955 8.98864 124.955 8.54545ZM141.048 18.5341V20.4091H133.82V18.5341H141.048ZM134.298 12.9091V26H132.286V12.9091H134.298ZM142.582 12.9091V26H140.57V12.9091H142.582ZM150.107 26.3068C149.278 26.3068 148.525 26.1506 147.849 25.8381C147.173 25.5199 146.636 25.0625 146.238 24.4659C145.84 23.8636 145.641 23.1364 145.641 22.2841C145.641 21.5341 145.789 20.9261 146.085 20.4602C146.38 19.9886 146.775 19.6193 147.269 19.3523C147.763 19.0852 148.309 18.8864 148.906 18.7557C149.508 18.6193 150.113 18.5114 150.721 18.4318C151.516 18.3295 152.161 18.2528 152.656 18.2017C153.156 18.1449 153.519 18.0511 153.746 17.9205C153.979 17.7898 154.096 17.5625 154.096 17.2386V17.1705C154.096 16.3295 153.866 15.6761 153.406 15.2102C152.951 14.7443 152.261 14.5114 151.335 14.5114C150.374 14.5114 149.621 14.7216 149.076 15.142C148.531 15.5625 148.147 16.0114 147.925 16.4886L146.016 15.8068C146.357 15.0114 146.812 14.392 147.38 13.9489C147.954 13.5 148.579 13.1875 149.255 13.0114C149.937 12.8295 150.607 12.7386 151.266 12.7386C151.687 12.7386 152.17 12.7898 152.715 12.892C153.266 12.9886 153.798 13.1903 154.309 13.4972C154.826 13.804 155.255 14.267 155.596 14.8864C155.937 15.5057 156.107 16.3352 156.107 17.375V26H154.096V24.2273H153.994C153.857 24.5114 153.63 24.8153 153.312 25.1392C152.994 25.4631 152.57 25.7386 152.042 25.9659C151.513 26.1932 150.869 26.3068 150.107 26.3068ZM150.414 24.5C151.21 24.5 151.88 24.3438 152.425 24.0312C152.977 23.7188 153.391 23.3153 153.67 22.821C153.954 22.3267 154.096 21.8068 154.096 21.2614V19.4205C154.011 19.5227 153.823 19.6165 153.533 19.7017C153.249 19.7812 152.92 19.8523 152.545 19.9148C152.175 19.9716 151.815 20.0227 151.462 20.0682C151.116 20.108 150.835 20.142 150.619 20.1705C150.096 20.2386 149.607 20.3494 149.153 20.5028C148.704 20.6506 148.34 20.875 148.062 21.1761C147.789 21.4716 147.653 21.875 147.653 22.3864C147.653 23.0852 147.911 23.6136 148.428 23.9716C148.951 24.3239 149.613 24.5 150.414 24.5ZM167.653 26V14.75H164.176C163.392 14.75 162.776 14.9318 162.327 15.2955C161.878 15.6591 161.653 16.1591 161.653 16.7955C161.653 17.4205 161.855 17.9119 162.259 18.2699C162.668 18.6278 163.227 18.8068 163.938 18.8068H168.165V20.6818H163.938C163.051 20.6818 162.287 20.5256 161.645 20.2131C161.003 19.9006 160.509 19.4545 160.162 18.875C159.815 18.2898 159.642 17.5966 159.642 16.7955C159.642 15.9886 159.824 15.2955 160.188 14.7159C160.551 14.1364 161.071 13.6903 161.747 13.3778C162.429 13.0653 163.239 12.9091 164.176 12.9091H169.562V26H167.653ZM158.926 26L162.642 19.4886H164.824L161.108 26H158.926ZM180.755 17.5795V19.4545H173.119V17.5795H180.755ZM183.44 26V24.4659L189.201 18.1591C189.877 17.4205 190.434 16.7784 190.871 16.233C191.309 15.6818 191.633 15.1648 191.843 14.6818C192.059 14.1932 192.167 13.6818 192.167 13.1477C192.167 12.5341 192.019 12.0028 191.724 11.554C191.434 11.1051 191.036 10.7585 190.531 10.5142C190.025 10.2699 189.457 10.1477 188.826 10.1477C188.156 10.1477 187.57 10.2869 187.07 10.5653C186.576 10.8381 186.192 11.2216 185.92 11.7159C185.653 12.2102 185.519 12.7898 185.519 13.4545H183.508C183.508 12.4318 183.744 11.5341 184.215 10.7614C184.687 9.98864 185.329 9.38636 186.141 8.95454C186.96 8.52273 187.877 8.30682 188.894 8.30682C189.917 8.30682 190.823 8.52273 191.613 8.95454C192.403 9.38636 193.022 9.96875 193.471 10.7017C193.92 11.4347 194.144 12.25 194.144 13.1477C194.144 13.7898 194.028 14.4176 193.795 15.0312C193.567 15.6392 193.17 16.3182 192.602 17.0682C192.039 17.8125 191.258 18.7216 190.258 19.7955L186.337 23.9886V24.125H194.451V26H183.44ZM203.528 8.30682C204.244 8.3125 204.96 8.44886 205.675 8.71591C206.391 8.98295 207.045 9.42614 207.636 10.0455C208.227 10.6591 208.701 11.4972 209.059 12.5597C209.417 13.6222 209.596 14.9545 209.596 16.5568C209.596 18.108 209.448 19.4858 209.153 20.6903C208.863 21.8892 208.442 22.9006 207.891 23.7244C207.346 24.5483 206.681 25.1733 205.897 25.5994C205.119 26.0256 204.238 26.2386 203.255 26.2386C202.278 26.2386 201.406 26.0455 200.638 25.6591C199.877 25.267 199.252 24.7244 198.763 24.0312C198.281 23.3324 197.971 22.5227 197.835 21.6023H199.914C200.102 22.4034 200.474 23.0653 201.031 23.5881C201.593 24.1051 202.335 24.3636 203.255 24.3636C204.602 24.3636 205.664 23.7756 206.442 22.5994C207.227 21.4233 207.619 19.7614 207.619 17.6136H207.482C207.164 18.0909 206.786 18.5028 206.349 18.8494C205.911 19.196 205.425 19.4631 204.891 19.6506C204.357 19.8381 203.789 19.9318 203.187 19.9318C202.187 19.9318 201.269 19.6847 200.434 19.1903C199.604 18.6903 198.94 18.0057 198.44 17.1364C197.945 16.2614 197.698 15.2614 197.698 14.1364C197.698 13.0682 197.937 12.0909 198.414 11.2045C198.897 10.3125 199.573 9.60227 200.442 9.07386C201.317 8.54545 202.346 8.28977 203.528 8.30682ZM203.528 10.1818C202.812 10.1818 202.167 10.3608 201.593 10.7188C201.025 11.071 200.573 11.5483 200.238 12.1506C199.908 12.7472 199.744 13.4091 199.744 14.1364C199.744 14.8636 199.903 15.5256 200.221 16.1222C200.545 16.7131 200.985 17.1847 201.542 17.5369C202.104 17.8835 202.744 18.0568 203.46 18.0568C203.999 18.0568 204.502 17.9517 204.968 17.7415C205.434 17.5256 205.84 17.233 206.187 16.8636C206.539 16.4886 206.815 16.0653 207.013 15.5938C207.212 15.1165 207.312 14.6193 207.312 14.1023C207.312 13.4205 207.147 12.7812 206.817 12.1847C206.494 11.5881 206.045 11.1051 205.471 10.7358C204.903 10.3665 204.255 10.1818 203.528 10.1818Z" fill="white"/>
</svg>
