<svg width="239" height="32" viewBox="0 0 239 32" fill="none" xmlns="http://www.w3.org/2000/svg">
<path d="M8.52996 10.152C8.06162 9.85929 7.44467 10.0017 7.15196 10.47C6.85925 10.9383 7.00163 11.5553 7.46996 11.848L15.47 16.848C15.7942 17.0507 16.2057 17.0507 16.53 16.848L24.53 11.848C24.9983 11.5553 25.1407 10.9383 24.848 10.47C24.5553 10.0017 23.9383 9.85929 23.47 10.152L16 14.8208L8.52996 10.152Z" fill="#F2F3F4"/>
<path d="M11.6 16.2C12.0418 16.5314 12.1314 17.1582 11.8 17.6L8.8 21.6C8.46863 22.0418 7.84183 22.1314 7.4 21.8C6.95817 21.4686 6.86863 20.8418 7.2 20.4L10.2 16.4C10.5314 15.9582 11.1582 15.8686 11.6 16.2Z" fill="#F2F3F4"/>
<path d="M20.2 17.6C19.8686 17.1582 19.9582 16.5314 20.4 16.2C20.8418 15.8686 21.4686 15.9582 21.8 16.4L24.8 20.4C25.1314 20.8418 25.0418 21.4686 24.6 21.8C24.1582 22.1314 23.5314 22.0418 23.2 21.6L20.2 17.6Z" fill="#F2F3F4"/>
<path fill-rule="evenodd" clip-rule="evenodd" d="M7 6C4.79086 6 3 7.79086 3 10V22C3 24.2091 4.79086 26 7 26H25C27.2091 26 29 24.2091 29 22V10C29 7.79086 27.2091 6 25 6H7ZM5 10C5 8.89543 5.89543 8 7 8H25C26.1046 8 27 8.89543 27 10V22C27 23.1046 26.1046 24 25 24H7C5.89543 24 5 23.1046 5 22V10Z" fill="#F2F3F4"/>
<path d="M42.1136 8.54545H44.6364L50.5682 23.0341H50.7727L56.7045 8.54545H59.2273V26H57.25V12.7386H57.0795L51.625 26H49.7159L44.2614 12.7386H44.0909V26H42.1136V8.54545ZM71.4425 20.6477V12.9091H73.4538V26H71.4425V23.7841H71.3061C70.9993 24.4489 70.522 25.0142 69.8743 25.4801C69.2266 25.9403 68.4084 26.1705 67.4197 26.1705C66.6016 26.1705 65.8743 25.9915 65.2379 25.6335C64.6016 25.2699 64.1016 24.7244 63.7379 23.9972C63.3743 23.2642 63.1925 22.3409 63.1925 21.2273V12.9091H65.2038V21.0909C65.2038 22.0455 65.4709 22.8068 66.005 23.375C66.5447 23.9432 67.2322 24.2273 68.0675 24.2273C68.5675 24.2273 69.076 24.0994 69.593 23.8438C70.1158 23.5881 70.5533 23.196 70.9055 22.6676C71.2635 22.1392 71.4425 21.4659 71.4425 20.6477ZM86.4105 15.8409L84.6037 16.3523C84.4901 16.0511 84.3224 15.7585 84.1009 15.4744C83.8849 15.1847 83.5895 14.946 83.2145 14.7585C82.8395 14.571 82.3594 14.4773 81.7741 14.4773C80.973 14.4773 80.3054 14.6619 79.7713 15.0312C79.2429 15.3949 78.9787 15.858 78.9787 16.4205C78.9787 16.9205 79.1605 17.3153 79.5241 17.6051C79.8878 17.8949 80.456 18.1364 81.2287 18.3295L83.1719 18.8068C84.3423 19.0909 85.2145 19.5256 85.7884 20.1108C86.3622 20.6903 86.6491 21.4375 86.6491 22.3523C86.6491 23.1023 86.4332 23.7727 86.0014 24.3636C85.5753 24.9545 84.9787 25.4205 84.2116 25.7614C83.4446 26.1023 82.5526 26.2727 81.5355 26.2727C80.2003 26.2727 79.0952 25.983 78.2202 25.4034C77.3452 24.8239 76.7912 23.9773 76.5582 22.8636L78.4673 22.3864C78.6491 23.0909 78.9929 23.6193 79.4986 23.9716C80.0099 24.3239 80.6776 24.5 81.5014 24.5C82.4389 24.5 83.1832 24.3011 83.7344 23.9034C84.2912 23.5 84.5696 23.017 84.5696 22.4545C84.5696 22 84.4105 21.6193 84.0923 21.3125C83.7741 21 83.2855 20.767 82.6264 20.6136L80.4446 20.1023C79.2457 19.8182 78.3651 19.3778 77.8026 18.7812C77.2457 18.179 76.9673 17.4261 76.9673 16.5227C76.9673 15.7841 77.1747 15.1307 77.5895 14.5625C78.0099 13.9943 78.581 13.5483 79.3026 13.2244C80.0298 12.9006 80.8537 12.7386 81.7741 12.7386C83.0696 12.7386 84.0866 13.0227 84.8253 13.5909C85.5696 14.1591 86.098 14.9091 86.4105 15.8409ZM94.995 26.2727C93.8132 26.2727 92.7763 25.9915 91.8842 25.429C90.9979 24.8665 90.3047 24.0795 89.8047 23.0682C89.3104 22.0568 89.0632 20.875 89.0632 19.5227C89.0632 18.1591 89.3104 16.9687 89.8047 15.9517C90.3047 14.9347 90.9979 14.1449 91.8842 13.5824C92.7763 13.0199 93.8132 12.7386 94.995 12.7386C96.1768 12.7386 97.2109 13.0199 98.0973 13.5824C98.9893 14.1449 99.6825 14.9347 100.177 15.9517C100.677 16.9687 100.927 18.1591 100.927 19.5227C100.927 20.875 100.677 22.0568 100.177 23.0682C99.6825 24.0795 98.9893 24.8665 98.0973 25.429C97.2109 25.9915 96.1768 26.2727 94.995 26.2727ZM94.995 24.4659C95.8928 24.4659 96.6314 24.2358 97.2109 23.7756C97.7905 23.3153 98.2195 22.7102 98.4979 21.9602C98.7763 21.2102 98.9155 20.3977 98.9155 19.5227C98.9155 18.6477 98.7763 17.8324 98.4979 17.0767C98.2195 16.321 97.7905 15.7102 97.2109 15.2443C96.6314 14.7784 95.8928 14.5455 94.995 14.5455C94.0973 14.5455 93.3587 14.7784 92.7791 15.2443C92.1996 15.7102 91.7706 16.321 91.4922 17.0767C91.2138 17.8324 91.0746 18.6477 91.0746 19.5227C91.0746 20.3977 91.2138 21.2102 91.4922 21.9602C91.7706 22.7102 92.1996 23.3153 92.7791 23.7756C93.3587 24.2358 94.0973 24.4659 94.995 24.4659ZM103.997 26V12.9091H105.94V14.8864H106.077C106.315 14.2386 106.747 13.7131 107.372 13.3097C107.997 12.9062 108.702 12.7045 109.486 12.7045C109.634 12.7045 109.818 12.7074 110.04 12.7131C110.261 12.7187 110.429 12.7273 110.543 12.7386V14.7841C110.474 14.767 110.318 14.7415 110.074 14.7074C109.835 14.6676 109.582 14.6477 109.315 14.6477C108.679 14.6477 108.111 14.7812 107.611 15.0483C107.116 15.3097 106.724 15.6733 106.435 16.1392C106.151 16.5994 106.009 17.125 106.009 17.7159V26H103.997ZM122.984 30.6023C121.245 30.6023 119.708 30.3636 118.373 29.8864C117.038 29.4148 115.915 28.7188 115.006 27.7983C114.097 26.8778 113.41 25.75 112.944 24.4148C112.478 23.0795 112.245 21.5511 112.245 19.8295C112.245 18.1648 112.481 16.6761 112.952 15.3636C113.43 14.0511 114.12 12.9375 115.023 12.0227C115.933 11.1023 117.035 10.4006 118.33 9.91761C119.631 9.43466 121.103 9.19318 122.745 9.19318C124.342 9.19318 125.739 9.45454 126.938 9.97727C128.143 10.4943 129.148 11.196 129.955 12.0824C130.768 12.9631 131.376 13.9545 131.779 15.0568C132.188 16.1591 132.393 17.2955 132.393 18.4659C132.393 19.2898 132.353 20.125 132.273 20.9716C132.194 21.8182 132.026 22.5966 131.771 23.3068C131.515 24.0114 131.12 24.5795 130.586 25.0114C130.058 25.4432 129.342 25.6591 128.438 25.6591C128.04 25.6591 127.603 25.5966 127.126 25.4716C126.648 25.3466 126.225 25.1392 125.856 24.8494C125.487 24.5597 125.268 24.1705 125.2 23.6818H125.097C124.961 24.0114 124.751 24.3239 124.467 24.6193C124.188 24.9148 123.822 25.1506 123.367 25.3267C122.918 25.5028 122.37 25.5795 121.722 25.5568C120.984 25.5284 120.333 25.3636 119.771 25.0625C119.208 24.7557 118.737 24.3409 118.356 23.8182C117.981 23.2898 117.697 22.679 117.504 21.9858C117.316 21.2869 117.222 20.5341 117.222 19.7273C117.222 18.9602 117.336 18.2585 117.563 17.6222C117.79 16.9858 118.106 16.429 118.509 15.9517C118.918 15.4744 119.396 15.0937 119.941 14.8097C120.492 14.5199 121.086 14.3409 121.722 14.2727C122.29 14.2159 122.808 14.2415 123.273 14.3494C123.739 14.4517 124.123 14.608 124.424 14.8182C124.725 15.0227 124.915 15.25 124.995 15.5H125.097V14.5455H126.904V22.25C126.904 22.7273 127.038 23.1477 127.305 23.5114C127.572 23.875 127.961 24.0568 128.472 24.0568C129.052 24.0568 129.495 23.858 129.802 23.4602C130.114 23.0625 130.327 22.4489 130.441 21.6193C130.56 20.7898 130.62 19.7273 130.62 18.4318C130.62 17.6705 130.515 16.9205 130.305 16.1818C130.1 15.4375 129.788 14.7415 129.367 14.0938C128.952 13.446 128.427 12.875 127.79 12.3807C127.154 11.8864 126.407 11.5 125.549 11.2216C124.697 10.9375 123.728 10.7955 122.643 10.7955C121.308 10.7955 120.112 11.0028 119.055 11.4176C118.004 11.8267 117.109 12.4261 116.37 13.2159C115.637 14 115.077 14.9545 114.691 16.0795C114.31 17.1989 114.12 18.4716 114.12 19.8977C114.12 21.3466 114.31 22.6335 114.691 23.7585C115.077 24.8835 115.646 25.8324 116.396 26.6051C117.151 27.3778 118.086 27.9631 119.2 28.3608C120.313 28.7642 121.597 28.9659 123.052 28.9659C123.677 28.9659 124.293 28.9063 124.901 28.7869C125.509 28.6676 126.046 28.5369 126.512 28.3949C126.978 28.2528 127.313 28.1477 127.518 28.0795L127.995 29.6477C127.643 29.7955 127.183 29.9432 126.614 30.0909C126.052 30.2386 125.45 30.3608 124.808 30.4574C124.171 30.554 123.563 30.6023 122.984 30.6023ZM121.995 23.8182C122.756 23.8182 123.373 23.6648 123.844 23.358C124.316 23.0511 124.66 22.5881 124.876 21.9688C125.092 21.3494 125.2 20.5682 125.2 19.625C125.2 18.6705 125.08 17.9261 124.842 17.392C124.603 16.858 124.251 16.483 123.785 16.267C123.319 16.0511 122.745 15.9432 122.063 15.9432C121.415 15.9432 120.862 16.1136 120.401 16.4545C119.947 16.7898 119.597 17.2386 119.353 17.8011C119.114 18.358 118.995 18.9659 118.995 19.625C118.995 20.3523 119.092 21.0369 119.285 21.679C119.478 22.3153 119.793 22.8324 120.231 23.2301C120.668 23.6222 121.256 23.8182 121.995 23.8182ZM135.403 26V12.9091H137.347V14.9545H137.517C137.79 14.2557 138.23 13.7131 138.838 13.3267C139.446 12.9347 140.176 12.7386 141.028 12.7386C141.892 12.7386 142.611 12.9347 143.185 13.3267C143.764 13.7131 144.216 14.2557 144.54 14.9545H144.676C145.011 14.2784 145.514 13.7415 146.185 13.3438C146.855 12.9403 147.659 12.7386 148.597 12.7386C149.767 12.7386 150.724 13.1051 151.469 13.8381C152.213 14.5653 152.585 15.6989 152.585 17.2386V26H150.574V17.2386C150.574 16.2727 150.31 15.5824 149.781 15.1676C149.253 14.7528 148.631 14.5455 147.915 14.5455C146.994 14.5455 146.281 14.8239 145.776 15.3807C145.27 15.9318 145.017 16.6307 145.017 17.4773V26H142.972V17.0341C142.972 16.2898 142.73 15.6903 142.247 15.2358C141.764 14.7756 141.142 14.5455 140.381 14.5455C139.858 14.5455 139.369 14.6847 138.915 14.9631C138.466 15.2415 138.102 15.6278 137.824 16.1222C137.551 16.6108 137.415 17.1761 137.415 17.8182V26H135.403ZM160.115 26.3068C159.286 26.3068 158.533 26.1506 157.857 25.8381C157.18 25.5199 156.643 25.0625 156.246 24.4659C155.848 23.8636 155.649 23.1364 155.649 22.2841C155.649 21.5341 155.797 20.9261 156.092 20.4602C156.388 19.9886 156.783 19.6193 157.277 19.3523C157.771 19.0852 158.317 18.8864 158.913 18.7557C159.516 18.6193 160.121 18.5114 160.729 18.4318C161.524 18.3295 162.169 18.2528 162.663 18.2017C163.163 18.1449 163.527 18.0511 163.754 17.9205C163.987 17.7898 164.104 17.5625 164.104 17.2386V17.1705C164.104 16.3295 163.874 15.6761 163.413 15.2102C162.959 14.7443 162.268 14.5114 161.342 14.5114C160.382 14.5114 159.629 14.7216 159.084 15.142C158.538 15.5625 158.155 16.0114 157.933 16.4886L156.024 15.8068C156.365 15.0114 156.82 14.392 157.388 13.9489C157.962 13.5 158.587 13.1875 159.263 13.0114C159.945 12.8295 160.615 12.7386 161.274 12.7386C161.695 12.7386 162.178 12.7898 162.723 12.892C163.274 12.9886 163.805 13.1903 164.317 13.4972C164.834 13.804 165.263 14.267 165.604 14.8864C165.945 15.5057 166.115 16.3352 166.115 17.375V26H164.104V24.2273H164.001C163.865 24.5114 163.638 24.8153 163.32 25.1392C163.001 25.4631 162.578 25.7386 162.05 25.9659C161.521 26.1932 160.876 26.3068 160.115 26.3068ZM160.422 24.5C161.217 24.5 161.888 24.3438 162.433 24.0312C162.984 23.7188 163.399 23.3153 163.678 22.821C163.962 22.3267 164.104 21.8068 164.104 21.2614V19.4205C164.018 19.5227 163.831 19.6165 163.541 19.7017C163.257 19.7812 162.928 19.8523 162.553 19.9148C162.183 19.9716 161.822 20.0227 161.47 20.0682C161.124 20.108 160.842 20.142 160.626 20.1705C160.104 20.2386 159.615 20.3494 159.161 20.5028C158.712 20.6506 158.348 20.875 158.07 21.1761C157.797 21.4716 157.661 21.875 157.661 22.3864C157.661 23.0852 157.919 23.6136 158.436 23.9716C158.959 24.3239 159.621 24.5 160.422 24.5ZM169.786 26V12.9091H171.798V26H169.786ZM170.809 10.7273C170.417 10.7273 170.079 10.5938 169.795 10.3267C169.516 10.0597 169.377 9.73864 169.377 9.36364C169.377 8.98864 169.516 8.66761 169.795 8.40057C170.079 8.13352 170.417 8 170.809 8C171.201 8 171.536 8.13352 171.815 8.40057C172.099 8.66761 172.241 8.98864 172.241 9.36364C172.241 9.73864 172.099 10.0597 171.815 10.3267C171.536 10.5938 171.201 10.7273 170.809 10.7273ZM177.493 8.54545V26H175.482V8.54545H177.493ZM182.643 26.1364C182.222 26.1364 181.862 25.9858 181.56 25.6847C181.259 25.3835 181.109 25.0227 181.109 24.6023C181.109 24.1818 181.259 23.821 181.56 23.5199C181.862 23.2187 182.222 23.0682 182.643 23.0682C183.063 23.0682 183.424 23.2187 183.725 23.5199C184.026 23.821 184.177 24.1818 184.177 24.6023C184.177 24.8807 184.106 25.1364 183.964 25.3693C183.827 25.6023 183.643 25.7898 183.41 25.9318C183.183 26.0682 182.927 26.1364 182.643 26.1364ZM193.104 26.2727C191.877 26.2727 190.82 25.983 189.934 25.4034C189.048 24.8239 188.366 24.0256 187.888 23.0085C187.411 21.9915 187.173 20.8295 187.173 19.5227C187.173 18.1932 187.417 17.0199 187.906 16.0028C188.4 14.9801 189.087 14.1818 189.968 13.608C190.854 13.0284 191.888 12.7386 193.07 12.7386C193.991 12.7386 194.82 12.9091 195.559 13.25C196.298 13.5909 196.903 14.0682 197.374 14.6818C197.846 15.2955 198.138 16.0114 198.252 16.8295H196.241C196.087 16.233 195.746 15.7045 195.218 15.2443C194.695 14.7784 193.991 14.5455 193.104 14.5455C192.32 14.5455 191.633 14.75 191.042 15.1591C190.457 15.5625 189.999 16.1335 189.67 16.8722C189.346 17.6051 189.184 18.4659 189.184 19.4545C189.184 20.4659 189.343 21.3466 189.661 22.0966C189.985 22.8466 190.44 23.429 191.025 23.8438C191.616 24.2585 192.309 24.4659 193.104 24.4659C193.627 24.4659 194.102 24.375 194.528 24.1932C194.954 24.0114 195.315 23.75 195.61 23.4091C195.906 23.0682 196.116 22.6591 196.241 22.1818H198.252C198.138 22.9545 197.857 23.6506 197.408 24.2699C196.965 24.8835 196.377 25.3722 195.644 25.7358C194.917 26.0938 194.07 26.2727 193.104 26.2727ZM206.511 26.2727C205.329 26.2727 204.292 25.9915 203.4 25.429C202.513 24.8665 201.82 24.0795 201.32 23.0682C200.826 22.0568 200.579 20.875 200.579 19.5227C200.579 18.1591 200.826 16.9687 201.32 15.9517C201.82 14.9347 202.513 14.1449 203.4 13.5824C204.292 13.0199 205.329 12.7386 206.511 12.7386C207.692 12.7386 208.727 13.0199 209.613 13.5824C210.505 14.1449 211.198 14.9347 211.692 15.9517C212.192 16.9687 212.442 18.1591 212.442 19.5227C212.442 20.875 212.192 22.0568 211.692 23.0682C211.198 24.0795 210.505 24.8665 209.613 25.429C208.727 25.9915 207.692 26.2727 206.511 26.2727ZM206.511 24.4659C207.408 24.4659 208.147 24.2358 208.727 23.7756C209.306 23.3153 209.735 22.7102 210.013 21.9602C210.292 21.2102 210.431 20.3977 210.431 19.5227C210.431 18.6477 210.292 17.8324 210.013 17.0767C209.735 16.321 209.306 15.7102 208.727 15.2443C208.147 14.7784 207.408 14.5455 206.511 14.5455C205.613 14.5455 204.874 14.7784 204.295 15.2443C203.715 15.7102 203.286 16.321 203.008 17.0767C202.729 17.8324 202.59 18.6477 202.59 19.5227C202.59 20.3977 202.729 21.2102 203.008 21.9602C203.286 22.7102 203.715 23.3153 204.295 23.7756C204.874 24.2358 205.613 24.4659 206.511 24.4659ZM215.513 26V12.9091H217.456V14.9545H217.626C217.899 14.2557 218.339 13.7131 218.947 13.3267C219.555 12.9347 220.286 12.7386 221.138 12.7386C222.001 12.7386 222.72 12.9347 223.294 13.3267C223.874 13.7131 224.325 14.2557 224.649 14.9545H224.786C225.121 14.2784 225.624 13.7415 226.294 13.3438C226.964 12.9403 227.768 12.7386 228.706 12.7386C229.876 12.7386 230.834 13.1051 231.578 13.8381C232.322 14.5653 232.695 15.6989 232.695 17.2386V26H230.683V17.2386C230.683 16.2727 230.419 15.5824 229.891 15.1676C229.362 14.7528 228.74 14.5455 228.024 14.5455C227.104 14.5455 226.391 14.8239 225.885 15.3807C225.379 15.9318 225.126 16.6307 225.126 17.4773V26H223.081V17.0341C223.081 16.2898 222.839 15.6903 222.357 15.2358C221.874 14.7756 221.251 14.5455 220.49 14.5455C219.967 14.5455 219.479 14.6847 219.024 14.9631C218.575 15.2415 218.212 15.6278 217.933 16.1222C217.661 16.6108 217.524 17.1761 217.524 17.8182V26H215.513Z" fill="white"/>
</svg>
