<svg width="266" height="32" viewBox="0 0 266 32" fill="none" xmlns="http://www.w3.org/2000/svg">
<path fill-rule="evenodd" clip-rule="evenodd" d="M9.34608 3.87581C10.6221 3.2223 12.1011 3.66514 12.9128 4.73391L14.6483 7.01889C15.7517 8.47178 15.6127 10.5164 14.3226 11.8065C14.1958 11.9332 14.1958 12.1388 14.3226 12.2655L19.7315 17.6744C19.8583 17.8012 20.0638 17.8012 20.1906 17.6744C21.4806 16.3844 23.5252 16.2453 24.9781 17.3488L27.2722 19.0911C28.334 19.8976 28.7821 21.3678 28.1301 22.6419C27.811 23.2656 27.3829 24.0235 26.8752 24.7239C24.8457 27.5236 21.0233 27.7283 18.3602 25.8622C16.5806 24.6151 14.3175 22.8028 11.7559 20.2411C9.19403 17.6793 7.38158 15.416 6.13447 13.6363C4.2699 10.9754 4.47591 7.14965 7.27309 5.12189C7.95773 4.62556 8.71862 4.19715 9.34608 3.87581ZM11.3201 5.94358C11.0384 5.57265 10.5908 5.48534 10.2577 5.65594C9.67786 5.95291 9.01635 6.32838 8.44695 6.74116C6.69585 8.01059 6.41314 10.5488 7.77237 12.4886C8.95383 14.1746 10.6917 16.3485 13.1701 18.8269C15.6483 21.3051 17.822 23.0429 19.508 24.2243C21.4502 25.5853 23.9849 25.3034 25.2558 23.5501C25.6818 22.9626 26.0572 22.3025 26.3497 21.7309C26.5164 21.4051 26.4319 20.9643 26.0625 20.6838L23.7685 18.9415C23.1118 18.4428 22.1878 18.5056 21.6048 19.0887C20.697 19.9965 19.2251 19.9965 18.3173 19.0887L12.9084 13.6797C12.0006 12.7719 12.0006 11.3001 12.9084 10.3922C13.4914 9.80921 13.5543 8.88518 13.0556 8.22856L11.3201 5.94358Z" fill="#F2F3F4"/>
<path d="M48.9545 22.9318V11.6818H50.8636V22.9318H48.9545ZM44.2841 18.2614V16.3523H55.5341V18.2614H44.2841ZM59.6335 26L67.4403 10.5568V10.4205H58.4403V8.54545H69.6222V10.5227L61.8494 26H59.6335ZM85.4467 26.2386C84.3217 26.2386 83.3189 26.0455 82.4382 25.6591C81.5632 25.2727 80.8672 24.7358 80.3501 24.0483C79.8388 23.3551 79.5604 22.5511 79.5149 21.6364H81.6626C81.7081 22.1989 81.9013 22.6847 82.2422 23.0938C82.5831 23.4972 83.0291 23.8097 83.5803 24.0312C84.1314 24.2528 84.7422 24.3636 85.4126 24.3636C86.1626 24.3636 86.8274 24.233 87.407 23.9716C87.9865 23.7102 88.4411 23.3466 88.7706 22.8807C89.1001 22.4148 89.2649 21.875 89.2649 21.2614C89.2649 20.6193 89.1058 20.054 88.7876 19.5653C88.4695 19.071 88.0036 18.6847 87.3899 18.4062C86.7763 18.1278 86.0263 17.9886 85.1399 17.9886H83.7422V16.1136H85.1399C85.8331 16.1136 86.4411 15.9886 86.9638 15.7386C87.4922 15.4886 87.9041 15.1364 88.1996 14.6818C88.5007 14.2273 88.6513 13.6932 88.6513 13.0795C88.6513 12.4886 88.5206 11.9744 88.2592 11.5369C87.9979 11.0994 87.6286 10.7585 87.1513 10.5142C86.6797 10.2699 86.1229 10.1477 85.4808 10.1477C84.8786 10.1477 84.3104 10.2585 83.7763 10.4801C83.2479 10.696 82.8161 11.0114 82.4808 11.4261C82.1456 11.8352 81.9638 12.3295 81.9354 12.9091H79.8899C79.924 11.9943 80.1996 11.1932 80.7166 10.5057C81.2337 9.8125 81.9098 9.27273 82.745 8.88636C83.5859 8.5 84.5092 8.30682 85.5149 8.30682C86.5945 8.30682 87.5206 8.52557 88.2933 8.96307C89.0661 9.39489 89.6598 9.96591 90.0746 10.6761C90.4893 11.3864 90.6967 12.1534 90.6967 12.9773C90.6967 13.9602 90.4382 14.7983 89.9212 15.4915C89.4098 16.1847 88.7138 16.6648 87.8331 16.9318V17.0682C88.9354 17.25 89.7962 17.7187 90.4155 18.4744C91.0348 19.2244 91.3445 20.1534 91.3445 21.2614C91.3445 22.2102 91.0859 23.0625 90.5689 23.8182C90.0575 24.5682 89.3587 25.1591 88.4723 25.5909C87.5859 26.0227 86.5774 26.2386 85.4467 26.2386ZM94.4212 22.4205V20.6818L102.092 8.54545H103.353V11.2386H102.501L96.7053 20.4091V20.5455H107.035V22.4205H94.4212ZM102.637 26V21.892V21.0824V8.54545H104.648V26H102.637ZM116.126 26.2386C115.001 26.2386 113.999 26.0455 113.118 25.6591C112.243 25.2727 111.547 24.7358 111.03 24.0483C110.518 23.3551 110.24 22.5511 110.195 21.6364H112.342C112.388 22.1989 112.581 22.6847 112.922 23.0938C113.263 23.4972 113.709 23.8097 114.26 24.0312C114.811 24.2528 115.422 24.3636 116.092 24.3636C116.842 24.3636 117.507 24.233 118.087 23.9716C118.666 23.7102 119.121 23.3466 119.45 22.8807C119.78 22.4148 119.945 21.875 119.945 21.2614C119.945 20.6193 119.786 20.054 119.467 19.5653C119.149 19.071 118.683 18.6847 118.07 18.4062C117.456 18.1278 116.706 17.9886 115.82 17.9886H114.422V16.1136H115.82C116.513 16.1136 117.121 15.9886 117.643 15.7386C118.172 15.4886 118.584 15.1364 118.879 14.6818C119.18 14.2273 119.331 13.6932 119.331 13.0795C119.331 12.4886 119.2 11.9744 118.939 11.5369C118.678 11.0994 118.308 10.7585 117.831 10.5142C117.359 10.2699 116.803 10.1477 116.161 10.1477C115.558 10.1477 114.99 10.2585 114.456 10.4801C113.928 10.696 113.496 11.0114 113.161 11.4261C112.825 11.8352 112.643 12.3295 112.615 12.9091H110.57C110.604 11.9943 110.879 11.1932 111.396 10.5057C111.913 9.8125 112.589 9.27273 113.425 8.88636C114.266 8.5 115.189 8.30682 116.195 8.30682C117.274 8.30682 118.2 8.52557 118.973 8.96307C119.746 9.39489 120.339 9.96591 120.754 10.6761C121.169 11.3864 121.376 12.1534 121.376 12.9773C121.376 13.9602 121.118 14.7983 120.601 15.4915C120.089 16.1847 119.393 16.6648 118.513 16.9318V17.0682C119.615 17.25 120.476 17.7187 121.095 18.4744C121.714 19.2244 122.024 20.1534 122.024 21.2614C122.024 22.2102 121.766 23.0625 121.249 23.8182C120.737 24.5682 120.038 25.1591 119.152 25.5909C118.266 26.0227 117.257 26.2386 116.126 26.2386ZM130.964 26.2386C129.964 26.2386 129.064 26.0398 128.263 25.642C127.462 25.2443 126.82 24.6989 126.337 24.0057C125.854 23.3125 125.589 22.5227 125.544 21.6364H127.589C127.669 22.4261 128.027 23.0795 128.663 23.5966C129.305 24.108 130.072 24.3636 130.964 24.3636C131.68 24.3636 132.317 24.196 132.874 23.8608C133.436 23.5256 133.876 23.0653 134.195 22.4801C134.518 21.8892 134.68 21.2216 134.68 20.4773C134.68 19.7159 134.513 19.0369 134.178 18.4403C133.848 17.8381 133.393 17.3636 132.814 17.017C132.234 16.6705 131.572 16.4943 130.828 16.4886C130.294 16.483 129.746 16.5653 129.183 16.7358C128.621 16.9006 128.158 17.1136 127.794 17.375L125.817 17.1364L126.874 8.54545H135.942V10.4205H128.646L128.033 15.5682H128.135C128.493 15.2841 128.942 15.0483 129.482 14.8608C130.021 14.6733 130.584 14.5795 131.169 14.5795C132.237 14.5795 133.189 14.8352 134.024 15.3466C134.865 15.8523 135.524 16.5455 136.001 17.4261C136.484 18.3068 136.726 19.3125 136.726 20.4432C136.726 21.5568 136.476 22.5511 135.976 23.4261C135.482 24.2955 134.8 24.983 133.93 25.4886C133.061 25.9886 132.072 26.2386 130.964 26.2386ZM152.316 26.2386C151.316 26.2386 150.415 26.0398 149.614 25.642C148.813 25.2443 148.171 24.6989 147.688 24.0057C147.205 23.3125 146.941 22.5227 146.896 21.6364H148.941C149.021 22.4261 149.379 23.0795 150.015 23.5966C150.657 24.108 151.424 24.3636 152.316 24.3636C153.032 24.3636 153.668 24.196 154.225 23.8608C154.788 23.5256 155.228 23.0653 155.546 22.4801C155.87 21.8892 156.032 21.2216 156.032 20.4773C156.032 19.7159 155.864 19.0369 155.529 18.4403C155.2 17.8381 154.745 17.3636 154.165 17.017C153.586 16.6705 152.924 16.4943 152.18 16.4886C151.646 16.483 151.097 16.5653 150.535 16.7358C149.972 16.9006 149.509 17.1136 149.146 17.375L147.168 17.1364L148.225 8.54545H157.293V10.4205H149.998L149.384 15.5682H149.487C149.844 15.2841 150.293 15.0483 150.833 14.8608C151.373 14.6733 151.935 14.5795 152.521 14.5795C153.589 14.5795 154.54 14.8352 155.376 15.3466C156.217 15.8523 156.876 16.5455 157.353 17.4261C157.836 18.3068 158.077 19.3125 158.077 20.4432C158.077 21.5568 157.827 22.5511 157.327 23.4261C156.833 24.2955 156.151 24.983 155.282 25.4886C154.413 25.9886 153.424 26.2386 152.316 26.2386ZM166.918 26.2386C165.918 26.2386 165.017 26.0398 164.216 25.642C163.415 25.2443 162.773 24.6989 162.29 24.0057C161.807 23.3125 161.543 22.5227 161.497 21.6364H163.543C163.622 22.4261 163.98 23.0795 164.616 23.5966C165.259 24.108 166.026 24.3636 166.918 24.3636C167.634 24.3636 168.27 24.196 168.827 23.8608C169.389 23.5256 169.83 23.0653 170.148 22.4801C170.472 21.8892 170.634 21.2216 170.634 20.4773C170.634 19.7159 170.466 19.0369 170.131 18.4403C169.801 17.8381 169.347 17.3636 168.767 17.017C168.188 16.6705 167.526 16.4943 166.781 16.4886C166.247 16.483 165.699 16.5653 165.136 16.7358C164.574 16.9006 164.111 17.1136 163.747 17.375L161.77 17.1364L162.827 8.54545H171.895V10.4205H164.599L163.986 15.5682H164.088C164.446 15.2841 164.895 15.0483 165.435 14.8608C165.974 14.6733 166.537 14.5795 167.122 14.5795C168.19 14.5795 169.142 14.8352 169.977 15.3466C170.818 15.8523 171.477 16.5455 171.955 17.4261C172.438 18.3068 172.679 19.3125 172.679 20.4432C172.679 21.5568 172.429 22.5511 171.929 23.4261C171.435 24.2955 170.753 24.983 169.884 25.4886C169.014 25.9886 168.026 26.2386 166.918 26.2386ZM181.519 26.2386C180.519 26.2386 179.619 26.0398 178.817 25.642C178.016 25.2443 177.374 24.6989 176.891 24.0057C176.408 23.3125 176.144 22.5227 176.099 21.6364H178.144C178.224 22.4261 178.582 23.0795 179.218 23.5966C179.86 24.108 180.627 24.3636 181.519 24.3636C182.235 24.3636 182.871 24.196 183.428 23.8608C183.991 23.5256 184.431 23.0653 184.749 22.4801C185.073 21.8892 185.235 21.2216 185.235 20.4773C185.235 19.7159 185.067 19.0369 184.732 18.4403C184.403 17.8381 183.948 17.3636 183.369 17.017C182.789 16.6705 182.127 16.4943 181.383 16.4886C180.849 16.483 180.3 16.5653 179.738 16.7358C179.175 16.9006 178.712 17.1136 178.349 17.375L176.371 17.1364L177.428 8.54545H186.496V10.4205H179.201L178.587 15.5682H178.69C179.048 15.2841 179.496 15.0483 180.036 14.8608C180.576 14.6733 181.138 14.5795 181.724 14.5795C182.792 14.5795 183.744 14.8352 184.579 15.3466C185.42 15.8523 186.079 16.5455 186.556 17.4261C187.039 18.3068 187.281 19.3125 187.281 20.4432C187.281 21.5568 187.031 22.5511 186.531 23.4261C186.036 24.2955 185.354 24.983 184.485 25.4886C183.616 25.9886 182.627 26.2386 181.519 26.2386ZM202.871 26.2386C201.871 26.2386 200.97 26.0398 200.169 25.642C199.368 25.2443 198.726 24.6989 198.243 24.0057C197.76 23.3125 197.496 22.5227 197.45 21.6364H199.496C199.575 22.4261 199.933 23.0795 200.57 23.5966C201.212 24.108 201.979 24.3636 202.871 24.3636C203.587 24.3636 204.223 24.196 204.78 23.8608C205.342 23.5256 205.783 23.0653 206.101 22.4801C206.425 21.8892 206.587 21.2216 206.587 20.4773C206.587 19.7159 206.419 19.0369 206.084 18.4403C205.754 17.8381 205.3 17.3636 204.72 17.017C204.141 16.6705 203.479 16.4943 202.734 16.4886C202.2 16.483 201.652 16.5653 201.089 16.7358C200.527 16.9006 200.064 17.1136 199.7 17.375L197.723 17.1364L198.78 8.54545H207.848V10.4205H200.553L199.939 15.5682H200.041C200.399 15.2841 200.848 15.0483 201.388 14.8608C201.928 14.6733 202.49 14.5795 203.075 14.5795C204.143 14.5795 205.095 14.8352 205.93 15.3466C206.771 15.8523 207.43 16.5455 207.908 17.4261C208.391 18.3068 208.632 19.3125 208.632 20.4432C208.632 21.5568 208.382 22.5511 207.882 23.4261C207.388 24.2955 206.706 24.983 205.837 25.4886C204.967 25.9886 203.979 26.2386 202.871 26.2386ZM217.472 26.2386C216.472 26.2386 215.572 26.0398 214.771 25.642C213.969 25.2443 213.327 24.6989 212.844 24.0057C212.362 23.3125 212.097 22.5227 212.052 21.6364H214.097C214.177 22.4261 214.535 23.0795 215.171 23.5966C215.813 24.108 216.58 24.3636 217.472 24.3636C218.188 24.3636 218.825 24.196 219.381 23.8608C219.944 23.5256 220.384 23.0653 220.702 22.4801C221.026 21.8892 221.188 21.2216 221.188 20.4773C221.188 19.7159 221.021 19.0369 220.685 18.4403C220.356 17.8381 219.901 17.3636 219.322 17.017C218.742 16.6705 218.08 16.4943 217.336 16.4886C216.802 16.483 216.254 16.5653 215.691 16.7358C215.129 16.9006 214.665 17.1136 214.302 17.375L212.325 17.1364L213.381 8.54545H222.45V10.4205H215.154L214.54 15.5682H214.643C215.001 15.2841 215.45 15.0483 215.989 14.8608C216.529 14.6733 217.092 14.5795 217.677 14.5795C218.745 14.5795 219.697 14.8352 220.532 15.3466C221.373 15.8523 222.032 16.5455 222.509 17.4261C222.992 18.3068 223.234 19.3125 223.234 20.4432C223.234 21.5568 222.984 22.5511 222.484 23.4261C221.989 24.2955 221.308 24.983 220.438 25.4886C219.569 25.9886 218.58 26.2386 217.472 26.2386ZM238.824 26.2386C237.824 26.2386 236.923 26.0398 236.122 25.642C235.321 25.2443 234.679 24.6989 234.196 24.0057C233.713 23.3125 233.449 22.5227 233.403 21.6364H235.449C235.528 22.4261 235.886 23.0795 236.523 23.5966C237.165 24.108 237.932 24.3636 238.824 24.3636C239.54 24.3636 240.176 24.196 240.733 23.8608C241.295 23.5256 241.736 23.0653 242.054 22.4801C242.378 21.8892 242.54 21.2216 242.54 20.4773C242.54 19.7159 242.372 19.0369 242.037 18.4403C241.707 17.8381 241.253 17.3636 240.673 17.017C240.094 16.6705 239.432 16.4943 238.688 16.4886C238.153 16.483 237.605 16.5653 237.043 16.7358C236.48 16.9006 236.017 17.1136 235.653 17.375L233.676 17.1364L234.733 8.54545H243.801V10.4205H236.506L235.892 15.5682H235.994C236.352 15.2841 236.801 15.0483 237.341 14.8608C237.881 14.6733 238.443 14.5795 239.028 14.5795C240.097 14.5795 241.048 14.8352 241.884 15.3466C242.724 15.8523 243.384 16.5455 243.861 17.4261C244.344 18.3068 244.585 19.3125 244.585 20.4432C244.585 21.5568 244.335 22.5511 243.835 23.4261C243.341 24.2955 242.659 24.983 241.79 25.4886C240.92 25.9886 239.932 26.2386 238.824 26.2386ZM253.425 26.2386C252.425 26.2386 251.525 26.0398 250.724 25.642C249.923 25.2443 249.281 24.6989 248.798 24.0057C248.315 23.3125 248.05 22.5227 248.005 21.6364H250.05C250.13 22.4261 250.488 23.0795 251.124 23.5966C251.766 24.108 252.533 24.3636 253.425 24.3636C254.141 24.3636 254.778 24.196 255.335 23.8608C255.897 23.5256 256.337 23.0653 256.656 22.4801C256.979 21.8892 257.141 21.2216 257.141 20.4773C257.141 19.7159 256.974 19.0369 256.638 18.4403C256.309 17.8381 255.854 17.3636 255.275 17.017C254.695 16.6705 254.033 16.4943 253.289 16.4886C252.755 16.483 252.207 16.5653 251.644 16.7358C251.082 16.9006 250.619 17.1136 250.255 17.375L248.278 17.1364L249.335 8.54545H258.403V10.4205H251.107L250.494 15.5682H250.596C250.954 15.2841 251.403 15.0483 251.942 14.8608C252.482 14.6733 253.045 14.5795 253.63 14.5795C254.698 14.5795 255.65 14.8352 256.485 15.3466C257.326 15.8523 257.985 16.5455 258.462 17.4261C258.945 18.3068 259.187 19.3125 259.187 20.4432C259.187 21.5568 258.937 22.5511 258.437 23.4261C257.942 24.2955 257.261 24.983 256.391 25.4886C255.522 25.9886 254.533 26.2386 253.425 26.2386Z" fill="white"/>
</svg>
