<svg width="40" height="40" viewBox="0 0 40 40" fill="none" xmlns="http://www.w3.org/2000/svg">
<path d="M15.5 24.5C15.5 23.6716 14.8284 23 14 23C13.1716 23 12.5 23.6716 12.5 24.5C12.5 28.6421 15.8579 32 20 32C24.1421 32 27.5 28.6421 27.5 24.5C27.5 23.6716 26.8284 23 26 23C25.1716 23 24.5 23.6716 24.5 24.5C24.5 26.9853 22.4853 29 20 29C17.5147 29 15.5 26.9853 15.5 24.5Z" fill="#F2F3F4"/>
<path d="M17 14C17 15.6569 15.6569 17 14 17C12.3431 17 11 15.6569 11 14C11 12.3431 12.3431 11 14 11C15.6569 11 17 12.3431 17 14Z" fill="#F2F3F4"/>
<path d="M26 17C27.6569 17 29 15.6569 29 14C29 12.3431 27.6569 11 26 11C24.3431 11 23 12.3431 23 14C23 15.6569 24.3431 17 26 17Z" fill="#F2F3F4"/>
<path fill-rule="evenodd" clip-rule="evenodd" d="M20 0.5C9.23045 0.5 0.5 9.23045 0.5 20C0.5 30.7696 9.23045 39.5 20 39.5C30.7696 39.5 39.5 30.7696 39.5 20C39.5 9.23045 30.7696 0.5 20 0.5ZM3.5 20C3.5 10.8873 10.8873 3.5 20 3.5C29.1127 3.5 36.5 10.8873 36.5 20C36.5 29.1127 29.1127 36.5 20 36.5C10.8873 36.5 3.5 29.1127 3.5 20Z" fill="#F2F3F4"/>
</svg>
